<svg aria-hidden="true" style="position: absolute; width: 0; height: 0; overflow: hidden;" version="1.1" xmlns="http://www.w3.org/2000/svg" xmlns:xlink="http://www.w3.org/1999/xlink">
<defs>
<symbol id="mail" viewBox="0 0 32 32">
<path d="M29 4h-26c-1.654 0-3 1.346-3 3v18c0 1.654 1.346 3 3 3h26c1.654 0 3-1.346 3-3v-18c0-1.654-1.346-3-3-3zM29 6c0.136 0 0.265 0.028 0.383 0.077l-13.383 11.599-13.383-11.599c0.118-0.049 0.247-0.077 0.383-0.077h26zM29 26h-26c-0.552 0-1-0.448-1-1v-16.81l13.345 11.565c0.188 0.163 0.422 0.244 0.655 0.244s0.467-0.081 0.655-0.244l13.345-11.565v16.81c0 0.552-0.448 1-1 1z"></path>
</symbol>
<symbol id="phone" viewBox="0 0 32 32">
<path d="M23 0h-14c-1.654 0-3 1.346-3 3v26c0 1.654 1.346 3 3 3h14c1.654 0 3-1.346 3-3v-26c0-1.654-1.346-3-3-3zM9 2h14c0.552 0 1 0.448 1 1v21h-16v-21c0-0.552 0.448-1 1-1zM23 30h-14c-0.552 0-1-0.448-1-1v-3h16v3c0 0.552-0.448 1-1 1z"></path>
<path d="M10.707 27.478c0.391 0.365 0.391 0.956 0 1.321s-1.024 0.365-1.414 0c-0.391-0.365-0.391-0.956 0-1.321s1.024-0.365 1.414 0z"></path>
</symbol>
<symbol id="instagram" viewBox="0 0 32 32">
<path d="M31.969 9.408c-0.075-1.7-0.35-2.869-0.744-3.882-0.406-1.075-1.032-2.038-1.851-2.838-0.8-0.813-1.769-1.444-2.832-1.844-1.019-0.394-2.182-0.669-3.882-0.744-1.713-0.081-2.257-0.1-6.601-0.1s-4.888 0.019-6.595 0.094c-1.7 0.075-2.869 0.35-3.882 0.744-1.075 0.406-2.038 1.031-2.838 1.85-0.813 0.8-1.444 1.769-1.844 2.832-0.394 1.019-0.669 2.182-0.744 3.882-0.081 1.713-0.1 2.257-0.1 6.601s0.019 4.888 0.094 6.595c0.075 1.7 0.35 2.869 0.744 3.882 0.406 1.075 1.038 2.038 1.85 2.838 0.8 0.813 1.769 1.444 2.832 1.844 1.019 0.394 2.182 0.669 3.882 0.744 1.706 0.075 2.25 0.094 6.595 0.094s4.888-0.019 6.595-0.094c1.7-0.075 2.869-0.35 3.882-0.744 2.151-0.832 3.851-2.532 4.682-4.682 0.394-1.019 0.669-2.182 0.744-3.882 0.075-1.707 0.094-2.251 0.094-6.595s-0.006-4.888-0.081-6.595zM29.087 22.473c-0.069 1.563-0.331 2.407-0.55 2.969-0.538 1.394-1.644 2.5-3.038 3.038-0.563 0.219-1.413 0.481-2.969 0.55-1.688 0.075-2.194 0.094-6.464 0.094s-4.782-0.019-6.464-0.094c-1.563-0.069-2.407-0.331-2.969-0.55-0.694-0.256-1.325-0.663-1.838-1.194-0.531-0.519-0.938-1.144-1.194-1.838-0.219-0.563-0.481-1.413-0.55-2.969-0.075-1.688-0.094-2.194-0.094-6.464s0.019-4.782 0.094-6.464c0.069-1.563 0.331-2.407 0.55-2.969 0.256-0.694 0.663-1.325 1.2-1.838 0.519-0.531 1.144-0.938 1.838-1.194 0.563-0.219 1.413-0.481 2.969-0.55 1.688-0.075 2.194-0.094 6.464-0.094 4.276 0 4.782 0.019 6.464 0.094 1.563 0.069 2.407 0.331 2.969 0.55 0.694 0.256 1.325 0.662 1.838 1.194 0.531 0.519 0.938 1.144 1.194 1.838 0.219 0.563 0.481 1.413 0.55 2.969 0.075 1.688 0.094 2.194 0.094 6.464s-0.019 4.77-0.094 6.458z"></path>
<path d="M16.059 7.783c-4.538 0-8.22 3.682-8.22 8.22s3.682 8.22 8.22 8.22c4.539 0 8.22-3.682 8.22-8.22s-3.682-8.22-8.22-8.22zM16.059 21.335c-2.944 0-5.332-2.388-5.332-5.332s2.388-5.332 5.332-5.332c2.944 0 5.332 2.388 5.332 5.332s-2.388 5.332-5.332 5.332v0z"></path>
<path d="M26.524 7.458c0 1.060-0.859 1.919-1.919 1.919s-1.919-0.859-1.919-1.919c0-1.060 0.859-1.919 1.919-1.919s1.919 0.859 1.919 1.919v0z"></path>
</symbol>
<symbol id="twitter" viewBox="0 0 32 32">
<path d="M32 6.078c-1.19 0.522-2.458 0.868-3.78 1.036 1.36-0.812 2.398-2.088 2.886-3.626-1.268 0.756-2.668 1.29-4.16 1.588-1.204-1.282-2.92-2.076-4.792-2.076-3.632 0-6.556 2.948-6.556 6.562 0 0.52 0.044 1.020 0.152 1.496-5.454-0.266-10.28-2.88-13.522-6.862-0.566 0.982-0.898 2.106-0.898 3.316 0 2.272 1.17 4.286 2.914 5.452-1.054-0.020-2.088-0.326-2.964-0.808 0 0.020 0 0.046 0 0.072 0 3.188 2.274 5.836 5.256 6.446-0.534 0.146-1.116 0.216-1.72 0.216-0.42 0-0.844-0.024-1.242-0.112 0.85 2.598 3.262 4.508 6.13 4.57-2.232 1.746-5.066 2.798-8.134 2.798-0.538 0-1.054-0.024-1.57-0.090 2.906 1.874 6.35 2.944 10.064 2.944 12.072 0 18.672-10 18.672-18.668 0-0.29-0.010-0.57-0.024-0.848 1.302-0.924 2.396-2.078 3.288-3.406z"></path>
</symbol>
<symbol id="facebook" viewBox="0 0 32 32">
<path d="M21.329 5.313h2.921v-5.088c-0.504-0.069-2.237-0.225-4.256-0.225-4.212 0-7.097 2.649-7.097 7.519v4.481h-4.648v5.688h4.648v14.312h5.699v-14.311h4.46l0.708-5.688h-5.169v-3.919c0.001-1.644 0.444-2.769 2.735-2.769z"></path>
</symbol>
<symbol id="linkedin" viewBox="0 0 32 32">
<path d="M31.992 32v-0.001h0.008v-11.736c0-5.741-1.236-10.164-7.948-10.164-3.227 0-5.392 1.771-6.276 3.449h-0.093v-2.913h-6.364v21.364h6.627v-10.579c0-2.785 0.528-5.479 3.977-5.479 3.399 0 3.449 3.179 3.449 5.657v10.401h6.62z"></path>
<path d="M0.528 10.636h6.635v21.364h-6.635v-21.364z"></path>
<path d="M3.843 0c-2.121 0-3.843 1.721-3.843 3.843s1.721 3.879 3.843 3.879c2.121 0 3.843-1.757 3.843-3.879-0.001-2.121-1.723-3.843-3.843-3.843v0z"></path>
</symbol>
<symbol id="group" viewBox="0 0 28 32">
<path d="M4.083 0.203l4.672 4.423-8.672-0.005v21.458h22.667v-8.204l4.667 4.418v-22.089h-23.333zM22.545 17.355l-13.247-12.54h13.247v12.54zM18.432 22.94h-14.762v-14.432h1.043v13.455h13.719v0.977zM7.156 28.936l-0.545 1.123-0.545-1.123h-0.457l0.796 1.497v0.872h0.413v-0.872l0.794-1.497h-0.456zM7.841 31.305l0.192-0.552h0.918l0.194 0.552h0.43l-0.897-2.37h-0.369l-0.895 2.37h0.428zM8.492 29.439l0.343 0.983h-0.687l0.343-0.983zM10.663 30.365c-0.060 0.091-0.090 0.191-0.090 0.301 0 0.2 0.070 0.362 0.21 0.487 0.141 0.124 0.329 0.186 0.563 0.186s0.436-0.063 0.605-0.19l0.133 0.158h0.459l-0.348-0.412c0.137-0.187 0.205-0.426 0.205-0.718h-0.343c0 0.159-0.033 0.304-0.099 0.435l-0.457-0.54 0.161-0.117c0.114-0.082 0.196-0.165 0.246-0.247 0.050-0.084 0.075-0.175 0.075-0.273 0-0.15-0.055-0.275-0.166-0.376-0.11-0.102-0.251-0.153-0.423-0.153-0.191 0-0.343 0.054-0.456 0.163-0.113 0.107-0.169 0.254-0.169 0.439 0 0.076 0.018 0.155 0.054 0.236 0.037 0.081 0.101 0.18 0.194 0.296-0.176 0.126-0.294 0.235-0.353 0.327zM11.733 30.889c-0.116 0.089-0.241 0.133-0.374 0.133-0.118 0-0.213-0.034-0.283-0.103s-0.106-0.157-0.106-0.267c0-0.127 0.065-0.24 0.195-0.339l0.050-0.036 0.518 0.61zM11.308 29.839c-0.112-0.138-0.168-0.252-0.168-0.343 0-0.079 0.023-0.145 0.068-0.197s0.107-0.078 0.184-0.078c0.072 0 0.131 0.022 0.177 0.067s0.070 0.096 0.070 0.158c0 0.093-0.034 0.17-0.101 0.229l-0.050 0.041-0.181 0.124zM15.165 31.126c0.163-0.142 0.256-0.34 0.28-0.592h-0.41c-0.022 0.169-0.073 0.29-0.155 0.363s-0.203 0.109-0.365 0.109c-0.177 0-0.311-0.067-0.404-0.202-0.091-0.135-0.137-0.33-0.137-0.586v-0.21c0.002-0.253 0.051-0.444 0.146-0.575 0.097-0.131 0.234-0.197 0.413-0.197 0.154 0 0.271 0.038 0.35 0.114 0.080 0.075 0.13 0.197 0.15 0.368h0.41c-0.026-0.259-0.119-0.46-0.278-0.602s-0.37-0.213-0.632-0.213c-0.194 0-0.366 0.046-0.514 0.138-0.148 0.092-0.261 0.224-0.34 0.394s-0.119 0.367-0.119 0.591v0.221c0.003 0.218 0.044 0.41 0.122 0.575s0.189 0.292 0.332 0.382c0.144 0.089 0.311 0.133 0.5 0.133 0.27 0 0.487-0.071 0.649-0.212zM17.586 30.794c0.080-0.176 0.12-0.38 0.12-0.612v-0.132c-0.001-0.231-0.042-0.434-0.124-0.607-0.081-0.175-0.197-0.308-0.347-0.4-0.149-0.093-0.32-0.14-0.513-0.14s-0.365 0.047-0.514 0.142c-0.149 0.093-0.264 0.228-0.347 0.405-0.081 0.177-0.122 0.381-0.122 0.612v0.133c0.001 0.227 0.042 0.427 0.124 0.601 0.082 0.174 0.199 0.308 0.348 0.402 0.151 0.093 0.322 0.14 0.514 0.14 0.194 0 0.366-0.047 0.514-0.14 0.15-0.094 0.265-0.229 0.345-0.404zM17.144 29.455c0.1 0.14 0.15 0.341 0.15 0.604v0.124c0 0.267-0.049 0.47-0.148 0.609-0.098 0.139-0.238 0.208-0.42 0.208-0.18 0-0.321-0.071-0.423-0.213-0.101-0.142-0.151-0.343-0.151-0.604v-0.137c0.002-0.255 0.053-0.452 0.153-0.591 0.101-0.14 0.24-0.21 0.418-0.21 0.182 0 0.323 0.070 0.422 0.21z"></path>
</symbol>
<symbol id="group-1" viewBox="0 0 25 32">
<path d="M10.728 1.956h-0.082c-0.127-0.008-0.254-0.011-0.38-0.014v0h-0.275c-0.24 0-0.484 0.006-0.727 0.018-0.018-0.001-0.037-0.001-0.055 0-2.2 0.125-4.356 0.675-6.349 1.62l-0.261 0.126v13.368l0.611-0.207c0.536-0.184 1.107-0.35 1.698-0.504 1.598-0.41 3.239-0.628 4.888-0.649v1.756c-0.218 0.002-0.431 0.008-0.643 0.018h-0.050c-1.269 0.070-2.528 0.263-3.76 0.577-1.56 0.391-3.065 0.977-4.48 1.746v-17.145c1.469-0.857 3.051-1.5 4.7-1.911 1.447-0.374 2.935-0.566 4.429-0.571h0.258c0.309 0.008 0.609 0.021 0.892 0.043 0.745 0.052 1.483 0.17 2.207 0.352v1.729c-0.703-0.164-1.418-0.272-2.138-0.322-0.015-0.001-0.029-0.002-0.044-0.004-0.149-0.013-0.298-0.025-0.437-0.025zM13.771 3.723c0.383 0.029 0.78 0.043 1.182 0.043 1.571-0.006 3.135-0.206 4.657-0.597 1.559-0.392 3.064-0.979 4.478-1.747v16.84c-1.47 0.856-3.053 1.5-4.701 1.912-1.448 0.372-2.935 0.564-4.429 0.57-1.132 0.009-2.261-0.124-3.36-0.396v-16.949c0.26 0.060 0.527 0.115 0.799 0.161 0.446 0.075 0.916 0.131 1.375 0.164zM22.341 3.853l-0.611 0.206c-0.562 0.189-1.129 0.358-1.698 0.508-1.659 0.426-3.363 0.645-5.075 0.651-0.399 0-0.765-0.011-1.12-0.034l-0.487-0.032v13.752l0.418 0.037c0.388 0.034 0.788 0.051 1.191 0.051 1.349-0.006 2.691-0.18 3.997-0.517 1.075-0.27 2.122-0.646 3.123-1.122l0.261-0.126v-13.373z"></path>
<path d="M2.048 25.67c-0.088-0.091-0.194-0.163-0.311-0.21s-0.243-0.069-0.369-0.065c-0.134-0.002-0.268 0.023-0.393 0.074-0.114 0.046-0.218 0.114-0.305 0.201s-0.153 0.192-0.197 0.307c-0.048 0.121-0.072 0.249-0.070 0.379v2.291c-0.005 0.161 0.025 0.322 0.090 0.47 0.054 0.117 0.132 0.222 0.229 0.307 0.092 0.077 0.199 0.133 0.315 0.163 0.111 0.031 0.226 0.047 0.342 0.048 0.128 0.001 0.254-0.026 0.37-0.080 0.115-0.050 0.218-0.122 0.305-0.212 0.085-0.089 0.153-0.193 0.2-0.307 0.049-0.116 0.074-0.24 0.073-0.365v-0.256h-0.599v0.204c0.002 0.070-0.010 0.139-0.035 0.204-0.020 0.049-0.049 0.093-0.087 0.129-0.037 0.030-0.080 0.052-0.125 0.066-0.040 0.013-0.083 0.021-0.125 0.021-0.053 0.006-0.108-0.002-0.157-0.023s-0.092-0.056-0.124-0.099c-0.056-0.092-0.084-0.199-0.079-0.307v-2.136c-0.004-0.118 0.021-0.236 0.073-0.342 0.031-0.048 0.075-0.087 0.127-0.111s0.109-0.034 0.166-0.027c0.052-0.002 0.103 0.009 0.149 0.031s0.087 0.056 0.118 0.098c0.067 0.088 0.102 0.196 0.099 0.307v0.198h0.593v-0.233c0.001-0.137-0.024-0.273-0.073-0.401-0.044-0.12-0.112-0.23-0.2-0.322z"></path>
<path d="M5.605 25.644c-0.191-0.161-0.432-0.25-0.681-0.252-0.122 0-0.243 0.022-0.357 0.064-0.116 0.042-0.224 0.105-0.316 0.187-0.099 0.089-0.178 0.199-0.232 0.321-0.060 0.14-0.090 0.291-0.087 0.444v2.197c-0.004 0.155 0.026 0.308 0.087 0.45 0.054 0.118 0.133 0.223 0.232 0.307 0.092 0.085 0.199 0.151 0.316 0.193 0.115 0.042 0.235 0.064 0.357 0.064s0.243-0.022 0.357-0.064c0.119-0.043 0.229-0.109 0.324-0.193 0.096-0.086 0.172-0.19 0.226-0.307 0.061-0.142 0.091-0.295 0.087-0.45v-2.197c0.003-0.152-0.027-0.304-0.087-0.444-0.053-0.121-0.13-0.23-0.226-0.321zM5.326 28.606c0.005 0.059-0.003 0.117-0.024 0.172s-0.053 0.105-0.095 0.145c-0.079 0.066-0.179 0.103-0.282 0.103s-0.203-0.036-0.282-0.103c-0.042-0.041-0.075-0.090-0.095-0.145s-0.029-0.114-0.024-0.172v-2.197c-0.005-0.059 0.003-0.117 0.024-0.172s0.053-0.105 0.095-0.145c0.079-0.066 0.179-0.103 0.282-0.103s0.203 0.036 0.282 0.103c0.042 0.041 0.075 0.090 0.095 0.145s0.029 0.114 0.024 0.172v2.197z"></path>
<path d="M10.277 29.587v-4.159h-0.576l-0.756 2.202h-0.011l-0.762-2.202h-0.57v4.159h0.594v-2.53h0.011l0.582 1.789h0.296l0.586-1.789h0.011v2.53h0.594z"></path>
<path d="M13.653 25.72c-0.091-0.103-0.207-0.181-0.336-0.227-0.139-0.045-0.285-0.067-0.431-0.064h-0.883v4.159h0.593v-1.624h0.305c0.185 0.008 0.369-0.031 0.535-0.114 0.135-0.075 0.247-0.185 0.325-0.318 0.069-0.111 0.115-0.234 0.136-0.362 0.023-0.157 0.034-0.315 0.032-0.473 0.006-0.2-0.014-0.399-0.058-0.594-0.040-0.144-0.115-0.275-0.218-0.382zM13.348 26.988c-0.003 0.075-0.021 0.149-0.055 0.216-0.034 0.064-0.087 0.115-0.153 0.146-0.088 0.039-0.184 0.057-0.28 0.052h-0.27v-1.414h0.305c0.092-0.005 0.184 0.013 0.267 0.052 0.061 0.035 0.11 0.089 0.139 0.153 0.032 0.073 0.050 0.152 0.052 0.232 0 0.088 0 0.18 0 0.276s0.006 0.196 0 0.286h-0.006z"></path>
<path d="M16.46 25.428h-0.486l-0.916 4.159h0.593l0.174-0.894h0.808l0.174 0.894h0.593l-0.939-4.159zM15.914 28.127l0.292-1.508h0.011l0.29 1.508h-0.593z"></path>
<path d="M20.29 27.934h-0.011l-0.895-2.506h-0.57v4.159h0.593v-2.501h0.012l0.906 2.501h0.557v-4.159h-0.593v2.506z"></path>
<path d="M23.911 25.428l-0.477 1.654h-0.012l-0.477-1.654h-0.628l0.814 2.401v1.758h0.593v-1.758l0.814-2.401h-0.628z"></path>
<path d="M0.395 30.762h0.286v0.801h0.194v-0.801h0.284v-0.164h-0.764v0.164z"></path>
<path d="M2.796 30.597l-0.374 0.966h0.206l0.079-0.22h0.385l0.082 0.22h0.211l-0.383-0.966h-0.206zM2.766 31.181l0.131-0.358 0.131 0.358h-0.263z"></path>
<path d="M5.17 31.207h0.223v0.124c-0.065 0.052-0.146 0.081-0.229 0.081-0.039 0.002-0.078-0.005-0.113-0.021s-0.067-0.040-0.091-0.071c-0.051-0.074-0.076-0.162-0.072-0.252 0-0.215 0.093-0.322 0.278-0.322 0.049-0.005 0.097 0.008 0.137 0.036s0.069 0.070 0.081 0.117l0.191-0.037c-0.041-0.189-0.177-0.284-0.409-0.284-0.124-0.003-0.245 0.041-0.338 0.124-0.049 0.048-0.086 0.106-0.11 0.17s-0.034 0.133-0.029 0.201c-0.006 0.132 0.039 0.262 0.124 0.362 0.047 0.049 0.105 0.087 0.168 0.111s0.131 0.035 0.199 0.030c0.151 0.004 0.298-0.051 0.409-0.154v-0.381h-0.418v0.163z"></path>
<path d="M7.594 30.597h-0.196v0.966h0.677v-0.164h-0.481v-0.801z"></path>
<path d="M9.644 30.597h-0.195v0.966h0.195v-0.966z"></path>
<path d="M11.648 31.242l-0.396-0.645h-0.189v0.966h0.182v-0.631l0.388 0.631h0.194v-0.966h-0.179v0.645z"></path>
<path d="M13.459 31.138h0.481v-0.164h-0.481v-0.212h0.518v-0.164h-0.713v0.966h0.733v-0.164h-0.538v-0.261z"></path>
<path d="M17.852 30.978h-0.38v-0.381h-0.194v0.966h0.194v-0.422h0.38v0.422h0.194v-0.966h-0.194v0.381z"></path>
<path d="M19.674 31.138h0.483v-0.164h-0.483v-0.212h0.519v-0.164h-0.713v0.966h0.732v-0.164h-0.538v-0.261z"></path>
<path d="M22.145 31.138c0.168-0.026 0.254-0.115 0.254-0.269 0.005-0.041-0.001-0.083-0.018-0.12s-0.043-0.070-0.077-0.094c-0.087-0.044-0.185-0.064-0.283-0.057h-0.409v0.966h0.194v-0.404h0.038c0.041-0.003 0.083 0.005 0.121 0.021 0.028 0.017 0.052 0.042 0.069 0.071l0.211 0.307h0.232l-0.118-0.189c-0.052-0.093-0.125-0.173-0.214-0.232zM21.95 31.004h-0.144v-0.243h0.153c0.067-0.005 0.134 0.002 0.197 0.023 0.014 0.012 0.025 0.028 0.033 0.045s0.011 0.036 0.010 0.055c-0.001 0.019-0.006 0.037-0.015 0.054s-0.021 0.031-0.037 0.042c-0.064 0.020-0.131 0.027-0.197 0.023z"></path>
<path d="M24.009 31.138h0.481v-0.164h-0.481v-0.212h0.519v-0.164h-0.715v0.966h0.733v-0.164h-0.538v-0.261z"></path>
</symbol>
<symbol id="group-2" viewBox="0 0 34 32">
<path d="M5.784 30.785c0.012 0 0.024 0.003 0.035 0.007s0.021 0.011 0.029 0.018l0.166 0.159c-0.129 0.129-0.288 0.231-0.467 0.302-0.21 0.076-0.435 0.113-0.663 0.108-0.214 0.004-0.426-0.031-0.623-0.101-0.178-0.065-0.338-0.162-0.469-0.285-0.134-0.128-0.237-0.277-0.303-0.44-0.073-0.182-0.108-0.373-0.106-0.565-0.003-0.194 0.036-0.386 0.114-0.567 0.073-0.164 0.182-0.314 0.322-0.44 0.142-0.124 0.312-0.222 0.499-0.287 0.205-0.069 0.422-0.103 0.642-0.101 0.204-0.004 0.407 0.027 0.596 0.092 0.165 0.062 0.316 0.148 0.447 0.254l-0.139 0.17c-0.010 0.012-0.022 0.022-0.035 0.031-0.016 0.010-0.036 0.014-0.056 0.013-0.022-0.001-0.042-0.008-0.060-0.018l-0.075-0.045-0.104-0.058c-0.045-0.021-0.091-0.040-0.139-0.056-0.062-0.019-0.125-0.034-0.189-0.045-0.082-0.013-0.164-0.019-0.247-0.018-0.158-0.002-0.315 0.024-0.461 0.076-0.136 0.048-0.26 0.121-0.361 0.213-0.104 0.098-0.183 0.214-0.235 0.339-0.058 0.144-0.087 0.295-0.085 0.448-0.002 0.155 0.026 0.309 0.085 0.455 0.051 0.125 0.129 0.239 0.231 0.338 0.095 0.092 0.213 0.163 0.345 0.209 0.136 0.049 0.281 0.073 0.428 0.072 0.085 0.001 0.17-0.004 0.253-0.014 0.137-0.015 0.268-0.056 0.384-0.121 0.058-0.033 0.113-0.071 0.164-0.112 0.021-0.018 0.049-0.028 0.079-0.029z"></path>
<path d="M10.582 29.987c0.003 0.191-0.035 0.382-0.112 0.561-0.068 0.163-0.174 0.311-0.313 0.436s-0.306 0.222-0.491 0.286c-0.407 0.135-0.856 0.135-1.263 0-0.184-0.065-0.35-0.163-0.488-0.287-0.138-0.127-0.246-0.277-0.316-0.44-0.15-0.364-0.15-0.761 0-1.125 0.071-0.164 0.178-0.314 0.316-0.442 0.139-0.12 0.305-0.214 0.488-0.276 0.406-0.137 0.857-0.137 1.263 0 0.185 0.065 0.351 0.163 0.49 0.287 0.137 0.125 0.243 0.273 0.314 0.435 0.077 0.181 0.115 0.372 0.112 0.565zM10.146 29.987c0.003-0.153-0.023-0.306-0.079-0.451-0.047-0.125-0.122-0.24-0.222-0.338-0.097-0.093-0.217-0.166-0.351-0.213-0.296-0.099-0.623-0.099-0.918 0-0.134 0.048-0.254 0.12-0.351 0.213-0.101 0.097-0.178 0.212-0.224 0.338-0.106 0.294-0.106 0.609 0 0.902 0.047 0.125 0.123 0.24 0.224 0.338 0.098 0.092 0.217 0.164 0.351 0.211 0.296 0.096 0.622 0.096 0.918 0 0.134-0.047 0.254-0.119 0.351-0.211 0.1-0.098 0.175-0.213 0.222-0.338 0.056-0.145 0.082-0.298 0.079-0.451z"></path>
<path d="M13.856 30.46l0.044 0.101c0.017-0.036 0.031-0.069 0.048-0.101 0.016-0.034 0.034-0.067 0.054-0.099l1.062-1.677c0.021-0.029 0.039-0.047 0.060-0.052 0.028-0.007 0.058-0.011 0.087-0.009h0.314v2.727h-0.372v-2.005c0-0.025 0-0.054 0-0.085-0.002-0.031-0.002-0.063 0-0.094l-1.068 1.7c-0.014 0.025-0.035 0.047-0.062 0.062s-0.059 0.023-0.091 0.023h-0.060c-0.032 0-0.064-0.007-0.091-0.023s-0.049-0.037-0.062-0.062l-1.099-1.711c0 0.033 0 0.065 0 0.097s0 0.061 0 0.087v2.005h-0.359v-2.722h0.314c0.030-0.002 0.059 0.002 0.087 0.009 0.026 0.011 0.046 0.030 0.058 0.052l1.084 1.678c0.021 0.031 0.039 0.064 0.054 0.098z"></path>
<path d="M17.851 30.325v1.021h-0.415v-2.723h0.926c0.175-0.003 0.349 0.017 0.517 0.060 0.134 0.033 0.259 0.091 0.366 0.17 0.092 0.074 0.163 0.165 0.208 0.267 0.049 0.111 0.073 0.229 0.071 0.348 0.002 0.119-0.024 0.238-0.077 0.348-0.050 0.105-0.127 0.198-0.224 0.273-0.107 0.082-0.232 0.143-0.368 0.18-0.162 0.045-0.331 0.066-0.501 0.063l-0.503-0.007zM17.851 30.032h0.503c0.109 0.001 0.218-0.013 0.322-0.042 0.086-0.025 0.165-0.065 0.233-0.117 0.062-0.050 0.111-0.112 0.141-0.18 0.034-0.073 0.051-0.151 0.050-0.229 0.005-0.076-0.009-0.151-0.042-0.222s-0.082-0.134-0.145-0.186c-0.159-0.108-0.358-0.16-0.559-0.146h-0.503v1.123z"></path>
<path d="M23.434 31.35h-0.328c-0.033 0.001-0.065-0.008-0.091-0.025-0.024-0.017-0.042-0.039-0.054-0.063l-0.282-0.659h-1.419l-0.293 0.659c-0.011 0.024-0.029 0.045-0.052 0.061-0.026 0.018-0.060 0.028-0.093 0.027h-0.328l1.246-2.727h0.432l1.263 2.727zM21.378 30.337h1.172l-0.494-1.11c-0.038-0.084-0.069-0.169-0.093-0.256l-0.048 0.143c-0.015 0.043-0.031 0.083-0.046 0.116l-0.49 1.108z"></path>
<path d="M25.229 28.635c0.025 0.012 0.046 0.029 0.062 0.049l1.818 2.056c0-0.032 0-0.065 0-0.096s0-0.061 0-0.090v-1.931h0.372v2.727h-0.208c-0.029 0.001-0.059-0.005-0.085-0.016-0.026-0.013-0.048-0.030-0.066-0.050l-1.816-2.054c0.002 0.031 0.002 0.063 0 0.094 0 0.031 0 0.058 0 0.083v1.944h-0.372v-2.727h0.22c0.026-0.001 0.051 0.004 0.075 0.013z"></path>
<path d="M30.543 30.265v1.083h-0.415v-1.083l-1.149-1.642h0.372c0.032-0.002 0.064 0.007 0.089 0.023 0.023 0.018 0.042 0.038 0.056 0.061l0.719 1.059c0.029 0.045 0.054 0.087 0.075 0.126s0.037 0.078 0.052 0.116l0.054-0.117c0.020-0.043 0.044-0.084 0.071-0.125l0.708-1.067c0.015-0.021 0.033-0.041 0.054-0.058 0.025-0.019 0.057-0.028 0.089-0.027h0.376l-1.151 1.65z"></path>
<path d="M13.65 24.046c0.181 0.020 0.364 0.036 0.548 0.051 2.803-1.089 5.174-2.873 6.817-5.126s2.485-4.878 2.421-7.546l-3.089-2.684c0.628 2.84 0.334 5.776-0.848 8.479s-3.208 5.067-5.849 6.827z"></path>
<path d="M12.547 23.921l0.083 0.014c2.822-1.754 4.974-4.203 6.176-7.030s1.402-5.904 0.571-8.83l-4.4-3.823c1.78 3.142 2.496 6.659 2.066 10.14s-1.989 6.786-4.496 9.529z"></path>
<path d="M27.469 14.576c-0.747 2.931-2.563 5.574-5.177 7.537-0.763 0.577-1.587 1.090-2.459 1.534 2.128-0.543 4.085-1.504 5.718-2.809s2.9-2.917 3.703-4.714l-1.784-1.549z"></path>
<path d="M26.769 14.144l-2.541-2.207c-0.049 2.517-0.872 4.976-2.385 7.123s-3.66 3.902-6.217 5.084h0.012c0.57-0 1.139-0.030 1.705-0.088 2.39-0.848 4.502-2.196 6.147-3.926s2.771-3.785 3.278-5.985z"></path>
<path d="M12.915 2.64l-3.031-2.637c-2.709 0.91-5.040 2.509-6.686 4.588s-2.531 4.542-2.54 7.066v0c0.010 2.789 1.090 5.495 3.070 7.69s4.745 3.754 7.859 4.43c2.78-2.943 4.407-6.578 4.646-10.38s-0.924-7.569-3.319-10.757z"></path>
<path d="M33.771 13.739c-0.011-3.309-1.529-6.479-4.221-8.818s-6.342-3.658-10.15-3.668c-1.76-0.002-3.504 0.281-5.146 0.832l18.557 16.123c0.635-1.425 0.961-2.941 0.96-4.469z"></path>
</symbol>
<symbol id="group-3" viewBox="0 0 67 32">
<path d="M10.818 9.684h-0.002c-1.872 0-3.389 1.348-3.389 3.012v0.002c0 1.663 1.517 3.012 3.389 3.012h0.002c1.872 0 3.389-1.348 3.389-3.012v-0.002c0-1.663-1.517-3.012-3.389-3.012z"></path>
<path d="M35.832 8.721c-0.005-2.31-1.040-4.524-2.878-6.158s-4.329-2.554-6.929-2.559c-2.6 0.004-5.093 0.924-6.932 2.558s-2.874 3.849-2.88 6.16v12.74c0 0 19.616-1.942 19.619-12.738v-0.002z"></path>
<path d="M0.558 25.642c0.005 1.608 0.725 3.148 2.004 4.285s3.012 1.778 4.821 1.782c1.808-0.005 3.541-0.645 4.82-1.782s1.999-2.676 2.005-4.283v-8.865c0 0-13.649 1.352-13.649 8.863zM7.382 27.23c-0.353 0-0.699-0.093-0.993-0.268s-0.523-0.423-0.658-0.713c-0.135-0.29-0.171-0.61-0.102-0.918s0.239-0.591 0.489-0.813 0.568-0.373 0.915-0.435c0.347-0.061 0.706-0.030 1.033 0.090s0.606 0.324 0.802 0.585c0.196 0.261 0.301 0.568 0.301 0.882 0.001 0.209-0.045 0.416-0.134 0.61s-0.221 0.369-0.387 0.517c-0.166 0.148-0.363 0.266-0.581 0.346s-0.45 0.121-0.686 0.121v-0.006z"></path>
<path d="M19.859 24.387v3.329h-0.686v-3.329h0.686zM21.185 25.809v0.535h-1.514v-0.535h1.514zM21.346 24.387v0.537h-1.674v-0.537h1.674zM24.478 25.974v0.158c0 0.253-0.034 0.48-0.103 0.681s-0.165 0.373-0.29 0.514c-0.125 0.14-0.274 0.248-0.448 0.322-0.172 0.075-0.364 0.112-0.574 0.112-0.209 0-0.4-0.037-0.574-0.112-0.172-0.075-0.322-0.182-0.448-0.322-0.127-0.142-0.225-0.313-0.295-0.514-0.069-0.201-0.103-0.428-0.103-0.681v-0.158c0-0.255 0.034-0.482 0.103-0.681 0.069-0.201 0.165-0.373 0.29-0.514 0.127-0.142 0.276-0.25 0.448-0.325 0.174-0.075 0.365-0.112 0.574-0.112 0.21 0 0.402 0.037 0.574 0.112 0.174 0.075 0.323 0.183 0.448 0.325 0.127 0.142 0.224 0.313 0.293 0.514 0.070 0.2 0.105 0.427 0.105 0.681zM23.785 26.132v-0.162c0-0.177-0.016-0.332-0.048-0.466s-0.079-0.247-0.142-0.338-0.139-0.16-0.229-0.206c-0.090-0.047-0.193-0.071-0.309-0.071s-0.219 0.024-0.309 0.071c-0.088 0.046-0.164 0.114-0.226 0.206-0.061 0.091-0.107 0.204-0.139 0.338s-0.048 0.29-0.048 0.466v0.162c0 0.175 0.016 0.331 0.048 0.466 0.032 0.134 0.079 0.248 0.142 0.341 0.063 0.091 0.139 0.161 0.229 0.208s0.193 0.071 0.309 0.071 0.219-0.024 0.309-0.071c0.090-0.047 0.165-0.117 0.226-0.208 0.061-0.093 0.107-0.207 0.14-0.341 0.032-0.136 0.048-0.291 0.048-0.466zM26.705 26.845c0-0.059-0.009-0.113-0.027-0.16-0.017-0.049-0.049-0.093-0.096-0.133-0.047-0.041-0.114-0.082-0.199-0.121s-0.196-0.081-0.332-0.123c-0.151-0.049-0.294-0.104-0.43-0.165-0.134-0.061-0.253-0.132-0.357-0.213-0.102-0.082-0.183-0.178-0.242-0.286-0.058-0.108-0.087-0.234-0.087-0.377 0-0.139 0.031-0.265 0.091-0.377 0.061-0.114 0.146-0.212 0.256-0.293 0.11-0.082 0.239-0.146 0.389-0.19 0.151-0.044 0.316-0.066 0.496-0.066 0.245 0 0.46 0.044 0.643 0.133s0.325 0.21 0.425 0.364c0.102 0.154 0.153 0.33 0.153 0.528h-0.681c0-0.098-0.021-0.183-0.062-0.256-0.040-0.075-0.101-0.133-0.183-0.176-0.081-0.043-0.183-0.064-0.306-0.064-0.119 0-0.218 0.018-0.297 0.055-0.079 0.035-0.139 0.083-0.178 0.144-0.040 0.059-0.059 0.127-0.059 0.201 0 0.056 0.014 0.107 0.041 0.153 0.029 0.046 0.072 0.088 0.128 0.128s0.126 0.077 0.208 0.112 0.178 0.069 0.286 0.103c0.181 0.055 0.341 0.117 0.478 0.185 0.139 0.069 0.255 0.146 0.348 0.231s0.163 0.182 0.21 0.29c0.047 0.108 0.071 0.231 0.071 0.368 0 0.145-0.028 0.274-0.085 0.389s-0.138 0.211-0.245 0.29c-0.107 0.079-0.234 0.139-0.382 0.181s-0.313 0.062-0.496 0.062c-0.165 0-0.327-0.021-0.487-0.064-0.16-0.044-0.306-0.111-0.437-0.199-0.13-0.088-0.233-0.201-0.311-0.338s-0.117-0.3-0.117-0.487h0.688c0 0.104 0.016 0.191 0.048 0.263s0.077 0.13 0.135 0.174c0.059 0.044 0.13 0.076 0.21 0.096 0.082 0.020 0.172 0.030 0.27 0.030 0.119 0 0.216-0.017 0.293-0.050 0.078-0.034 0.135-0.080 0.171-0.139 0.038-0.059 0.057-0.127 0.057-0.201zM29.346 24.387v3.329h-0.684v-3.329h0.684zM30.371 24.387v0.537h-2.716v-0.537h2.716zM32.996 27.181v0.535h-1.772v-0.535h1.772zM31.448 24.387v3.329h-0.686v-3.329h0.686zM32.765 25.743v0.521h-1.541v-0.521h1.541zM32.993 24.387v0.537h-1.77v-0.537h1.77zM33.396 24.387h1.242c0.255 0 0.473 0.038 0.656 0.114 0.184 0.076 0.326 0.189 0.425 0.338s0.149 0.333 0.149 0.551c0 0.178-0.030 0.332-0.091 0.46-0.059 0.127-0.144 0.233-0.254 0.318-0.108 0.084-0.236 0.151-0.382 0.201l-0.217 0.114h-1.079l-0.005-0.535h0.803c0.12 0 0.22-0.021 0.3-0.064s0.139-0.102 0.178-0.178c0.041-0.076 0.062-0.165 0.062-0.265 0-0.107-0.020-0.199-0.059-0.277s-0.1-0.137-0.181-0.178-0.182-0.062-0.304-0.062h-0.556v2.792h-0.686v-3.329zM35.257 27.716l-0.759-1.484 0.725-0.005 0.768 1.457v0.032h-0.734zM38.859 26.529h-0.848v-0.535h0.848c0.131 0 0.238-0.021 0.32-0.064 0.082-0.044 0.143-0.105 0.181-0.183s0.057-0.165 0.057-0.263c0-0.099-0.019-0.191-0.057-0.277s-0.098-0.154-0.181-0.206c-0.082-0.052-0.189-0.078-0.32-0.078h-0.611v2.792h-0.686v-3.329h1.297c0.261 0 0.484 0.047 0.67 0.142 0.187 0.093 0.331 0.222 0.43 0.386s0.149 0.353 0.149 0.565c0 0.215-0.050 0.401-0.149 0.558s-0.242 0.278-0.43 0.364c-0.186 0.085-0.409 0.128-0.67 0.128zM42.814 27.181v0.535h-1.772v-0.535h1.772zM41.266 24.387v3.329h-0.686v-3.329h0.686zM42.583 25.743v0.521h-1.541v-0.521h1.541zM42.812 24.387v0.537h-1.77v-0.537h1.77zM44.749 24.387v3.329h-0.684v-3.329h0.684zM45.773 24.387v0.537h-2.717v-0.537h2.716zM48.398 27.181v0.535h-1.772v-0.535h1.772zM46.85 24.387v3.329h-0.686v-3.329h0.686zM48.167 25.743v0.521h-1.541v-0.521h1.541zM48.396 24.387v0.537h-1.77v-0.537h1.77zM48.798 24.387h1.242c0.255 0 0.473 0.038 0.656 0.114 0.184 0.076 0.326 0.189 0.425 0.338s0.149 0.333 0.149 0.551c0 0.178-0.030 0.332-0.091 0.46-0.059 0.127-0.144 0.233-0.254 0.318-0.108 0.084-0.235 0.151-0.382 0.201l-0.217 0.114h-1.079l-0.005-0.535h0.803c0.12 0 0.22-0.021 0.3-0.064s0.139-0.102 0.178-0.178c0.041-0.076 0.062-0.165 0.062-0.265 0-0.107-0.020-0.199-0.059-0.277s-0.1-0.137-0.181-0.178-0.182-0.062-0.304-0.062h-0.556v2.792h-0.686v-3.329zM50.66 27.716l-0.759-1.484 0.725-0.005 0.768 1.457v0.032h-0.734zM53.532 26.845c0-0.059-0.009-0.113-0.027-0.16-0.017-0.049-0.049-0.093-0.096-0.133-0.047-0.041-0.114-0.082-0.199-0.121s-0.196-0.081-0.332-0.123c-0.151-0.049-0.294-0.104-0.43-0.165-0.134-0.061-0.253-0.132-0.357-0.213-0.102-0.082-0.183-0.178-0.242-0.286-0.058-0.108-0.087-0.234-0.087-0.377 0-0.139 0.031-0.265 0.091-0.377 0.061-0.114 0.146-0.212 0.256-0.293 0.11-0.082 0.239-0.146 0.389-0.19 0.151-0.044 0.316-0.066 0.496-0.066 0.245 0 0.46 0.044 0.642 0.133s0.325 0.21 0.425 0.364c0.102 0.154 0.153 0.33 0.153 0.528h-0.681c0-0.098-0.021-0.183-0.062-0.256-0.040-0.075-0.101-0.133-0.183-0.176-0.081-0.043-0.183-0.064-0.306-0.064-0.119 0-0.218 0.018-0.297 0.055-0.079 0.035-0.139 0.083-0.178 0.144-0.040 0.059-0.059 0.127-0.059 0.201 0 0.056 0.014 0.107 0.041 0.153 0.029 0.046 0.072 0.088 0.128 0.128s0.126 0.077 0.208 0.112 0.178 0.069 0.286 0.103c0.181 0.055 0.341 0.117 0.478 0.185 0.139 0.069 0.255 0.146 0.348 0.231s0.163 0.182 0.21 0.29c0.047 0.108 0.071 0.231 0.071 0.368 0 0.145-0.028 0.274-0.085 0.389s-0.138 0.211-0.245 0.29c-0.107 0.079-0.234 0.139-0.382 0.181s-0.313 0.062-0.496 0.062c-0.165 0-0.327-0.021-0.487-0.064-0.16-0.044-0.306-0.111-0.437-0.199-0.13-0.088-0.233-0.201-0.311-0.338s-0.117-0.3-0.117-0.487h0.688c0 0.104 0.016 0.191 0.048 0.263s0.077 0.13 0.135 0.174c0.059 0.044 0.13 0.076 0.21 0.096 0.082 0.020 0.172 0.030 0.27 0.030 0.119 0 0.217-0.017 0.293-0.050 0.078-0.034 0.135-0.080 0.171-0.139 0.038-0.059 0.057-0.127 0.057-0.201z"></path>
</symbol>
<symbol id="group-4" viewBox="0 0 44 32">
<path d="M3.479 26.462c0.17 0.192 0.26 0.433 0.255 0.68 0.009 0.161-0.022 0.322-0.091 0.47s-0.172 0.281-0.304 0.388c-0.329 0.228-0.737 0.339-1.149 0.313h-2.020v-4.307h1.979c0.391-0.024 0.778 0.077 1.096 0.286 0.128 0.098 0.229 0.222 0.296 0.362s0.097 0.292 0.088 0.444c0.012 0.238-0.070 0.471-0.23 0.659-0.154 0.171-0.366 0.29-0.602 0.337 0.268 0.045 0.51 0.175 0.683 0.368zM1.11 25.812h0.846c0.192 0.013 0.383-0.038 0.538-0.143 0.063-0.053 0.113-0.118 0.144-0.191s0.044-0.152 0.037-0.23c0.006-0.078-0.007-0.156-0.038-0.229s-0.079-0.138-0.141-0.192c-0.159-0.108-0.356-0.16-0.554-0.145h-0.832v1.13zM2.576 27.464c0.068-0.054 0.121-0.122 0.156-0.197s0.050-0.158 0.044-0.24c0.005-0.083-0.011-0.166-0.046-0.243s-0.090-0.145-0.158-0.199c-0.165-0.112-0.369-0.167-0.575-0.156h-0.887v1.185h0.899c0.202 0.011 0.402-0.042 0.568-0.149z"></path>
<path d="M7.524 28.314l-1.101-1.683h-0.414v1.683h-0.947v-4.307h1.792c0.452-0.029 0.898 0.102 1.248 0.366 0.251 0.234 0.402 0.542 0.426 0.869s-0.079 0.651-0.293 0.914c-0.221 0.232-0.523 0.387-0.855 0.438l1.172 1.721h-1.030zM6.009 26.044h0.774c0.538 0 0.807-0.217 0.807-0.652 0.005-0.089-0.009-0.178-0.043-0.261s-0.087-0.159-0.154-0.223c-0.17-0.129-0.389-0.192-0.609-0.175h-0.784l0.009 1.311z"></path>
<path d="M12.699 27.447h-1.887l-0.333 0.867h-0.993l1.733-4.259h1.073l1.726 4.259h-0.993l-0.326-0.867zM12.446 26.795l-0.689-1.818-0.689 1.818h1.379z"></path>
<path d="M19.177 28.314h-0.94l-2.107-2.929v2.929h-0.938v-4.307h0.938l2.107 2.946v-2.946h0.94v4.307z"></path>
<path d="M24.541 27.283c-0.194 0.325-0.49 0.59-0.85 0.76-0.409 0.189-0.863 0.282-1.321 0.271h-1.673v-4.307h1.673c0.457-0.011 0.911 0.080 1.321 0.265 0.36 0.166 0.656 0.428 0.85 0.751 0.193 0.35 0.294 0.737 0.294 1.13s-0.101 0.78-0.294 1.13zM23.465 27.18c0.268-0.286 0.416-0.651 0.416-1.028s-0.147-0.742-0.416-1.028c-0.324-0.259-0.747-0.391-1.177-0.366h-0.653v2.788h0.653c0.43 0.025 0.852-0.107 1.177-0.366z"></path>
<path d="M13.287 0.049c0 0 12.131 4.194 11.874 10.262v10.264c0 0-12.122-4.196-11.869-10.264l-0.005-10.262z"></path>
<path d="M35.969 18.172c2.291-1.444 4.941-2.338 7.708-2.601v-3.213c-3.187 1.125-5.892 3.164-7.708 5.814z"></path>
<path d="M34.592 19.14c1.875-3.457 5.126-6.125 9.084-7.455v-9.258c0 0-17.276 5.974-16.911 14.615v14.613c0 0 0.77-0.267 1.981-0.768 0-0.467 0-0.938 0.055-1.412 0.358-4.012 2.441-7.729 5.791-10.335z"></path>
<path d="M32.949 24.569c0.091-1.013 0.293-2.016 0.604-2.992-2.086 2.25-3.35 5.043-3.613 7.985-0.025 0.278-0.039 0.555-0.046 0.842 0.981-0.431 2.123-0.97 3.323-1.603-0.306-1.392-0.397-2.816-0.269-4.231z"></path>
<path d="M33.636 24.621c-0.115 1.28-0.043 2.569 0.214 3.832 4.72-2.586 10.024-6.582 9.819-11.411v-0.421c-3.372 0.346-6.528 1.695-8.981 3.842-0.574 1.33-0.929 2.732-1.053 4.158z"></path>
</symbol>
<symbol id="group-6" viewBox="0 0 69 32">
<path d="M35.054 15.064c-0.322-0.429-0.476-0.936-0.44-1.446v-2.097c0-0.643 0.146-1.131 0.437-1.465s0.792-0.501 1.502-0.499c0.667 0 1.141 0.142 1.421 0.427 0.305 0.363 0.454 0.807 0.42 1.254v0.493h-1.193v-0.499c0.004-0.163-0.007-0.327-0.035-0.488-0.017-0.111-0.077-0.213-0.17-0.29-0.123-0.083-0.277-0.124-0.432-0.113-0.163-0.011-0.326 0.032-0.455 0.12-0.104 0.086-0.173 0.198-0.198 0.32-0.034 0.171-0.050 0.345-0.047 0.518v2.545c-0.019 0.245 0.034 0.491 0.153 0.715 0.059 0.076 0.142 0.136 0.238 0.173s0.203 0.052 0.308 0.040c0.153 0.011 0.305-0.031 0.423-0.115 0.097-0.083 0.16-0.192 0.178-0.309 0.028-0.169 0.040-0.339 0.037-0.51v-0.516h1.193v0.471c0.034 0.467-0.111 0.93-0.413 1.318-0.274 0.311-0.741 0.467-1.428 0.467s-1.206-0.166-1.5-0.512z"></path>
<path d="M40.023 15.085c-0.301-0.326-0.452-0.802-0.452-1.431v-2.206c0-0.623 0.151-1.094 0.452-1.414s0.805-0.479 1.512-0.478c0.702 0 1.203 0.159 1.505 0.478 0.301 0.32 0.455 0.791 0.455 1.414v2.206c0 0.623-0.153 1.101-0.46 1.429s-0.805 0.493-1.5 0.493-1.208-0.166-1.512-0.491zM42.091 14.556c0.108-0.204 0.157-0.428 0.143-0.653v-2.7c0.014-0.22-0.034-0.44-0.141-0.64-0.061-0.077-0.145-0.138-0.244-0.176s-0.208-0.051-0.315-0.037c-0.107-0.013-0.216 0-0.316 0.038s-0.184 0.098-0.245 0.175c-0.109 0.2-0.158 0.42-0.143 0.64v2.713c-0.015 0.224 0.034 0.449 0.143 0.653 0.070 0.069 0.155 0.124 0.252 0.162s0.201 0.057 0.307 0.057 0.21-0.020 0.307-0.057c0.096-0.038 0.182-0.093 0.252-0.162v-0.013z"></path>
<path d="M44.929 9.62h1.285l0.966 4.070 0.988-4.070h1.25l0.126 5.874h-0.924l-0.099-4.082-0.954 4.082h-0.741l-0.988-4.097-0.091 4.097h-0.934l0.116-5.874z"></path>
<path d="M50.985 9.62h2.001c1.153 0 1.729 0.556 1.729 1.668 0 1.065-0.607 1.597-1.821 1.595h-0.682v2.611h-1.235l0.007-5.874zM52.695 12.131c0.122 0.013 0.246 0.004 0.363-0.028s0.225-0.086 0.316-0.157c0.142-0.198 0.204-0.431 0.178-0.663 0.006-0.179-0.013-0.358-0.059-0.533-0.018-0.058-0.049-0.113-0.091-0.161s-0.096-0.088-0.156-0.118c-0.172-0.071-0.361-0.103-0.551-0.094h-0.479v1.755h0.479z"></path>
<path d="M56.497 9.62h1.327l1.361 5.874h-1.151l-0.269-1.354h-1.183l-0.277 1.354h-1.169l1.361-5.874zM57.631 13.46l-0.462-2.466-0.462 2.466h0.924z"></path>
<path d="M60.285 9.62h0.865l1.655 3.351v-3.351h1.025v5.874h-0.823l-1.665-3.498v3.498h-1.060l0.002-5.874z"></path>
<path d="M66.232 13.255l-1.376-3.626h1.159l0.84 2.329 0.788-2.329h1.134l-1.359 3.626v2.24h-1.186v-2.24z"></path>
<path d="M36.962 18.062v0.307h-1.008v2.387h-0.422v-2.387h-1.013v-0.307h2.444z"></path>
<path d="M40.121 20.757h-0.326c-0.033 0.002-0.066-0.007-0.091-0.026-0.025-0.016-0.044-0.037-0.054-0.062l-0.292-0.64h-1.398l-0.291 0.64c-0.008 0.027-0.024 0.052-0.044 0.073-0.026 0.018-0.058 0.027-0.091 0.026h-0.326l1.235-2.694h0.43l1.25 2.683zM38.076 19.756h1.166l-0.494-1.096c-0.036-0.083-0.067-0.168-0.091-0.254-0.017 0.051-0.032 0.1-0.047 0.143l-0.044 0.113-0.489 1.094z"></path>
<path d="M42.251 20.492c0.077 0.003 0.155 0.003 0.232 0 0.067-0.006 0.133-0.017 0.198-0.032 0.060-0.013 0.12-0.029 0.178-0.049 0.054-0.019 0.109-0.043 0.166-0.066v-0.606h-0.494c-0.012 0.001-0.024-0.001-0.036-0.005s-0.022-0.009-0.031-0.017c-0.008-0.006-0.015-0.014-0.019-0.022s-0.006-0.018-0.006-0.027v-0.207h0.959v1.032c-0.078 0.048-0.161 0.091-0.247 0.128-0.088 0.038-0.18 0.068-0.274 0.092-0.101 0.026-0.204 0.044-0.309 0.055-0.12 0.012-0.24 0.017-0.361 0.017-0.213 0.002-0.425-0.032-0.623-0.1-0.185-0.064-0.353-0.16-0.494-0.282-0.138-0.123-0.246-0.268-0.319-0.427-0.078-0.179-0.116-0.368-0.114-0.559-0.003-0.192 0.035-0.383 0.111-0.563 0.071-0.16 0.18-0.305 0.319-0.427 0.141-0.121 0.309-0.216 0.494-0.279 0.212-0.069 0.436-0.103 0.662-0.1 0.115-0 0.23 0.008 0.343 0.023 0.1 0.014 0.199 0.037 0.294 0.068 0.086 0.028 0.169 0.064 0.247 0.107 0.076 0.042 0.148 0.089 0.215 0.141l-0.119 0.166c-0.009 0.015-0.023 0.028-0.040 0.037s-0.036 0.014-0.056 0.014c-0.027-0.001-0.054-0.008-0.077-0.021-0.037-0.017-0.077-0.038-0.121-0.064-0.053-0.028-0.108-0.053-0.166-0.073-0.074-0.026-0.15-0.046-0.227-0.060-0.103-0.016-0.209-0.024-0.314-0.023-0.163-0.002-0.325 0.024-0.477 0.075-0.137 0.048-0.261 0.12-0.363 0.213-0.102 0.097-0.181 0.211-0.23 0.335-0.11 0.292-0.11 0.606 0 0.898 0.054 0.127 0.138 0.242 0.247 0.339 0.101 0.092 0.224 0.165 0.361 0.213 0.157 0.047 0.324 0.065 0.489 0.053z"></path>
<path d="M46.19 20.449h1.349v0.307h-1.762v-2.694h0.423l-0.010 2.387z"></path>
<path d="M48.942 20.756h-0.423v-2.694h0.423v2.694z"></path>
<path d="M50.513 18.075c0.025 0.012 0.047 0.029 0.064 0.049l1.806 2.031c-0.002-0.032-0.002-0.064 0-0.096 0-0.030 0-0.060 0-0.087v-1.92h0.368v2.705h-0.212c-0.032 0.002-0.063-0.003-0.091-0.015-0.026-0.013-0.048-0.031-0.067-0.051l-1.804-2.029c0 0.032 0 0.062 0 0.092s0 0.058 0 0.083v1.92h-0.353v-2.694h0.22c0.024 0 0.047 0.004 0.069 0.013z"></path>
<path d="M55.862 18.062v0.297h-1.497v0.89h1.213v0.286h-1.213v0.919h1.497v0.297h-1.932v-2.688h1.932z"></path>
<path d="M11.59 1.425l18.76 4.599v16.115l-18.76-4.597v-16.117zM10.387 0.052v18.273l21.164 5.19v-18.271l-21.164-5.192z"></path>
<path d="M21.73 31.997l-21.166-5.194v-18.272l21.166 5.192v18.274z"></path>
<path d="M10.738 1.218l18.515 4.541-7.874 6.8-18.518-4.543 7.877-6.798zM10.387 0.052l-9.824 8.481 21.166 5.192 9.821-8.481-21.164-5.192z"></path>
<path d="M22.921 30.97l8.63-7.453-8.63-2.118v9.571z"></path>
</symbol>
</defs>
</svg>
